<svg width="16" height="16" viewBox="0 0 16 16" fill="none" xmlns="http://www.w3.org/2000/svg">
<rect width="16" height="16" rx="8" fill="black"/>
<path fill-rule="evenodd" clip-rule="evenodd" d="M10.9631 6.79358C10.9631 8.43009 9.63651 9.75672 8 9.75672C6.36351 9.75672 5.03687 8.43009 5.03687 6.79358C5.03687 5.15709 6.36351 3.83044 8 3.83044C8.66712 3.83044 9.28274 4.0509 9.77799 4.42293C9.81978 4.36722 9.86569 4.31421 9.91552 4.26439C10.1934 3.98654 10.5702 3.83044 10.9631 3.83044V6.79358ZM9.48157 6.79358C9.48157 7.61182 8.81824 8.27515 8 8.27515C7.18176 8.27515 6.51843 7.61182 6.51843 6.79358C6.51843 5.97534 7.18176 5.31201 8 5.31201C8.81824 5.31201 9.48157 5.97534 9.48157 6.79358Z" fill="white"/>
<path d="M5.10498 10.688C5.10498 11.0809 5.26108 11.4578 5.53892 11.7356C5.81677 12.0135 6.19362 12.1696 6.58655 12.1696H10.9291C10.9291 11.7766 10.773 11.3998 10.4951 11.1219C10.2173 10.8441 9.84045 10.688 9.44752 10.688H5.10498Z" fill="white"/>
</svg>
