<svg width="174" height="245" viewBox="0 0 174 245" fill="none" xmlns="http://www.w3.org/2000/svg">
<g clip-path="url(#clip0_2015_127)">
<path fill-rule="evenodd" clip-rule="evenodd" d="M174 87C174 135.049 135.049 174 87 174C38.9512 174 0 135.049 0 87C0 38.9512 38.9512 0 87 0C106.587 0 124.662 6.4727 139.203 17.3958C140.43 15.7601 141.778 14.2037 143.241 12.7409C151.399 4.58302 162.463 0 174 0V87ZM130.5 87C130.5 111.024 111.024 130.5 87 130.5C62.9756 130.5 43.5 111.024 43.5 87C43.5 62.9756 62.9756 43.5 87 43.5C111.024 43.5 130.5 62.9756 130.5 87Z" fill="black"/>
<path d="M2 201.343C2 212.88 6.58302 223.944 14.7408 232.102C22.8987 240.26 33.9631 244.843 45.5 244.843H173C173 233.306 168.417 222.242 160.259 214.084C152.101 205.926 141.037 201.343 129.5 201.343H2Z" fill="black"/>
</g>
<defs>
<clipPath id="clip0_2015_127">
<rect width="174" height="245" fill="white"/>
</clipPath>
</defs>
</svg>
